<?xml version="1.0" standalone="no"?>
<!DOCTYPE svg PUBLIC "-//W3C//DTD SVG 20010904//EN"
 "http://www.w3.org/TR/2001/REC-SVG-20010904/DTD/svg10.dtd">
<svg version="1.0" xmlns="http://www.w3.org/2000/svg"
 width="1536.000000pt" height="1536.000000pt" viewBox="0 0 1536.000000 1536.000000"
 preserveAspectRatio="xMidYMid meet">
<metadata>
Created by potrace 1.11, written by Peter Selinger 2001-2013
</metadata>
<g transform="translate(0.000000,1536.000000) scale(0.100000,-0.100000)"
fill="#000000" stroke="none">
<path d="M7349 15026 c-2 -2 -56 -7 -119 -10 -63 -4 -133 -9 -155 -11 -22 -2
-74 -6 -115 -9 -41 -4 -86 -9 -100 -11 -14 -2 -50 -7 -80 -10 -30 -4 -67 -8
-81 -10 -14 -3 -43 -7 -65 -10 -64 -8 -113 -15 -224 -35 -58 -11 -121 -22
-140 -25 -111 -18 -513 -117 -694 -172 -252 -75 -704 -239 -730 -264 -6 -5
-16 -9 -22 -9 -13 0 -51 -17 -274 -120 -389 -181 -788 -416 -1173 -692 -78
-56 -144 -104 -147 -107 -3 -4 -45 -37 -94 -75 -118 -92 -275 -224 -415 -351
-69 -62 -376 -369 -451 -450 -564 -611 -1049 -1366 -1372 -2140 -137 -327
-259 -691 -343 -1026 -41 -164 -107 -473 -120 -564 -9 -57 -14 -93 -25 -155
-5 -30 -11 -82 -15 -115 -3 -33 -8 -67 -10 -75 -3 -14 -6 -37 -20 -180 -24
-245 -30 -389 -30 -735 0 -293 5 -432 20 -600 19 -200 26 -269 31 -295 2 -14
6 -45 9 -70 3 -25 7 -56 10 -70 2 -14 6 -45 10 -70 13 -87 16 -106 31 -190 9
-47 18 -94 20 -105 2 -11 13 -65 25 -120 248 -1149 752 -2197 1494 -3110 350
-431 795 -862 1244 -1203 524 -399 1161 -759 1736 -982 61 -23 124 -48 141
-56 162 -71 722 -236 1003 -295 53 -11 104 -22 114 -24 37 -8 294 -54 332 -60
22 -3 60 -8 84 -10 24 -3 47 -7 50 -9 3 -2 42 -7 86 -11 44 -4 82 -8 85 -10 3
-2 43 -6 90 -10 47 -3 101 -8 120 -10 255 -27 912 -27 1215 0 22 2 72 6 110 9
39 3 86 8 105 11 19 2 54 7 78 10 52 6 119 15 152 20 14 2 45 6 70 10 25 3 92
15 150 25 58 11 121 22 140 25 118 19 517 118 710 177 613 186 1273 484 1755
793 157 100 392 258 447 300 14 11 39 29 54 40 92 66 296 229 432 346 220 189
634 603 744 744 12 17 30 37 39 45 9 8 65 75 124 148 293 367 519 707 754
1132 41 75 231 456 231 464 0 3 14 34 31 71 16 36 36 82 44 103 8 20 28 71 45
112 123 292 263 735 341 1080 11 47 22 94 24 105 14 57 72 379 81 445 2 19 9
60 14 90 5 30 12 82 15 115 3 33 8 71 10 85 2 14 6 59 10 100 3 41 8 91 10
110 27 272 27 993 0 1217 -2 15 -6 64 -10 108 -4 44 -8 91 -10 105 -2 14 -6
50 -10 80 -3 30 -8 67 -11 81 -2 15 -6 47 -9 70 -22 180 -93 537 -151 759 -19
74 -37 142 -39 151 -7 35 -49 171 -97 319 -277 851 -717 1656 -1293 2365 -285
352 -629 699 -994 1003 -938 784 -2062 1321 -3266 1560 -181 37 -284 54 -385
66 -20 3 -47 7 -60 10 -14 3 -52 8 -85 11 -33 3 -73 8 -90 10 -32 5 -103 12
-225 21 -41 3 -93 8 -115 10 -46 6 -801 15 -806 10z"/>
</g>
</svg>
